Coordinates
version=1
nRows=18
nColumns=28
inDegrees=yes

Units are S.I. units (second, meters, Newtons, ...)
Angles are in degrees.

endheader
time	pelvis_tilt	pelvis_list	pelvis_rotation	pelvis_tx	pelvis_ty	pelvis_tz	hip_flexion_r	hip_adduction_r	hip_rotation_r	knee_angle_r	ankle_angle_r	subtalar_angle_r	mtp_angle_r	hip_flexion_l	hip_adduction_l	hip_rotation_l	knee_angle_l	socket_flexion	socket_adduction	socket_rotation	socket_tx	socket_ty	socket_tz	foot_flex	lumbar_extension	lumbar_bending	lumbar_rotation
      0.31666667	     -2.50604227	      1.18884562	      0.55985064	     -0.46527204	      1.02571158	      0.28748718	     20.03712524	     -2.71369020	     -5.50286645	    -66.55086493	      4.85153009	    -15.54002437	      0.53242960	      6.75179858	      3.69359133	     11.42884834	     -7.29926964	      0.00000000	      0.00000000	      0.00000000	      0.00000000	      0.00000000	      0.00000000	     -0.58376626	     -8.25370234	     -4.46597323	     -0.56134735
      0.32083333	     -2.26406056	      0.95962466	      0.89436989	     -0.45991000	      1.02664812	      0.28688635	     20.19171397	     -2.62717456	     -5.86395342	    -66.01824359	      5.55265976	    -14.58826054	      0.63608948	      6.12581948	      3.48112094	     11.76279820	     -7.19990991	      0.00000000	      0.00000000	      0.00000000	      0.00000000	      0.00000000	      0.00000000	     -0.49890316	     -8.55969871	     -4.10305536	     -1.03004583
      0.32500000	     -2.23936810	      0.90383576	      0.98786306	     -0.45450046	      1.02712163	      0.28688820	     20.67205748	     -2.58422758	     -5.88813225	    -65.56735671	      5.78224850	    -14.54347818	      0.66621653	      5.69222136	      3.40008741	     11.84773673	     -7.04876258	      0.00000000	      0.00000000	      0.00000000	      0.00000000	      0.00000000	      0.00000000	     -0.38002811	     -8.57250962	     -4.04027917	     -1.07054805
      0.32916667	     -1.97232641	      0.66340974	      1.30188512	     -0.44912320	      1.02801506	      0.28636535	     20.77092076	     -2.45867678	     -6.21479470	    -64.96124366	      6.49114438	    -13.84343463	      0.57447311	      5.03461218	      3.15706974	     12.16734041	     -6.93351584	      0.00000000	      0.00000000	      0.00000000	      0.00000000	      0.00000000	      0.00000000	     -0.31140354	     -8.90407196	     -3.65580044	     -1.49655271
      0.33333333	     -1.94069585	      0.49026245	      1.43257394	     -0.44368189	      1.02854209	      0.28630578	     21.17305675	     -2.29625764	     -6.30622134	    -64.35227461	      6.78386514	    -13.67010634	      0.55177182	      4.60796545	      2.94937804	     12.27834646	     -6.80400128	      0.00000000	      0.00000000	      0.00000000	      0.00000000	      0.00000000	      0.00000000	     -0.18154425	     -8.91425225	     -3.44380377	     -1.55181144
      0.33750000	     -1.72498571	      0.34752071	      1.68872299	     -0.43831306	      1.02928134	      0.28598856	     21.33077698	     -2.25076598	     -6.56428256	    -63.69517005	      7.24702731	    -13.26785011	      0.26660255	      4.00438802	      2.78791048	     12.50627899	     -6.69376441	      0.00000000	      0.00000000	      0.00000000	      0.00000000	      0.00000000	      0.00000000	     -0.08474468	     -9.16340703	     -3.22114895	     -1.87502604
      0.34166667	     -1.71392199	      0.18235142	      1.81252409	     -0.43289858	      1.02968476	      0.28594937	     21.73393543	     -2.09148402	     -6.64551923	    -63.03275309	      7.55424287	    -13.17248527	      0.25126739	      3.60143536	      2.58095751	     12.62708001	     -6.54990111	      0.00000000	      0.00000000	      0.00000000	      0.00000000	      0.00000000	      0.00000000	      0.02873590	     -9.15994353	     -3.02300758	     -1.90773587
      0.34583333	     -1.59779378	      0.01427119	      2.02849418	     -0.42753120	      1.03024019	      0.28572815	     21.98343277	     -1.99410172	     -6.86553020	    -62.29594890	      7.85120392	    -12.96581767	      0.11888562	      3.10458219	      2.38049978	     12.82707320	     -6.43658437	      0.00000000	      0.00000000	      0.00000000	      0.00000000	      0.00000000	      0.00000000	      0.14736821	     -9.28064347	     -2.77418344	     -2.11644449
      0.35000000	     -1.58651738	      0.01339505	      2.12064479	     -0.42219838	      1.03050239	      0.28575827	     22.39507678	     -2.01954578	     -6.88621060	    -61.62187497	      8.01855935	    -12.97207364	      0.11449547	      2.72006611	      2.35556331	     12.87644404	     -6.34712442	      0.00000000	      0.00000000	      0.00000000	      0.00000000	      0.00000000	      0.00000000	      0.25363196	     -9.27235319	     -2.78091967	     -2.14709211
      0.35416667	     -1.52560633	     -0.23720921	      2.31217955	     -0.41678539	      1.03096536	      0.28558229	     22.65345758	     -1.80497130	     -7.09414764	    -60.77721093	      8.45330048	    -12.92357267	      0.07658234	      2.27588136	      2.05541436	     13.06854257	     -6.20619700	      0.00000000	      0.00000000	      0.00000000	      0.00000000	      0.00000000	      0.00000000	      0.33757426	     -9.31792807	     -2.43366367	     -2.27275740
      0.35833333	     -1.31533155	     -0.43104058	      2.59890862	     -0.41148678	      1.03160229	      0.28525337	     22.72128204	     -1.70954975	     -7.40222835	    -59.87317200	      8.67337583	    -12.83135709	     -0.21614263	      1.69844173	      1.81587921	     13.33758392	     -6.10750887	      0.00000000	      0.00000000	      0.00000000	      0.00000000	      0.00000000	      0.00000000	      0.47865129	     -9.54840791	     -2.14645123	     -2.61068145
      0.36250000	     -1.31164878	     -0.39411209	      2.67901481	     -0.40625963	      1.03174993	      0.28532682	     23.11242129	     -1.77883146	     -7.42997326	    -59.11539235	      8.81408044	    -12.86258099	     -0.24157083	      1.33941895	      1.82886178	     13.35812578	     -6.03832865	      0.00000000	      0.00000000	      0.00000000	      0.00000000	      0.00000000	      0.00000000	      0.58310808	     -9.55239709	     -2.19788902	     -2.63946230
      0.36666667	     -1.17895011	     -0.66349406	      2.93033768	     -0.40087973	      1.03225998	      0.28508090	     23.21544275	     -1.56632819	     -7.71663567	    -58.10106637	      9.15459764	    -12.96688913	     -0.51769493	      0.83596849	      1.49563131	     13.60848268	     -5.91611269	      0.00000000	      0.00000000	      0.00000000	      0.00000000	      0.00000000	      0.00000000	      0.70552195	     -9.67367468	     -1.82179540	     -2.85263342
      0.37083333	     -1.18227313	     -0.60948202	      3.00837297	     -0.39571628	      1.03233621	      0.28515723	     23.58665425	     -1.66107914	     -7.75037926	    -57.27769131	      9.27373859	    -13.01141719	     -0.55605784	      0.49122719	      1.52565142	     13.61742462	     -5.85495294	      0.00000000	      0.00000000	      0.00000000	      0.00000000	      0.00000000	      0.00000000	      0.81144708	     -9.68098080	     -1.89481650	     -2.88561186
      0.37500000	     -1.07302683	     -0.88116643	      3.26502154	     -0.39034271	      1.03276330	      0.28493463	     23.67739653	     -1.44485417	     -8.06008837	    -56.17365135	      9.59304426	    -13.27614458	     -0.87278504	      0.01540531	      1.18129249	     13.88082045	     -5.72782206	      0.00000000	      0.00000000	      0.00000000	      0.00000000	      0.00000000	      0.00000000	      0.92774715	     -9.77208507	     -1.52817346	     -3.09284247
      0.37916667	     -1.08501540	     -0.80333643	      3.34230954	     -0.38523717	      1.03275327	      0.28500221	     24.02920978	     -1.56688516	     -8.08763908	    -55.29027718	      9.68489707	    -13.32626452	     -0.92287569	     -0.30724449	      1.24001967	     13.87217842	     -5.68707952	      0.00000000	      0.00000000	      0.00000000	      0.00000000	      0.00000000	      0.00000000	      1.04013471	     -9.79066486	     -1.61355721	     -3.12670425
      0.38333333	     -1.09007608	     -0.80937994	      3.43994937	     -0.37998916	      1.03280245	      0.28509383	     24.30778864	     -1.59987815	     -8.19567375	    -54.28493987	      9.86270870	    -13.46558742	     -1.01320612	     -0.65548086	      1.19270597	     13.93833958	     -5.61651818	      0.00000000	      0.00000000	      0.00000000	      0.00000000	      0.00000000	      0.00000000	      1.15390057	     -9.76954313	     -1.62096657	     -3.18283185
      0.38750000	     -0.92236634	     -1.16935034	      3.79221909	     -0.37472201	      1.03330605	      0.28470300	     24.23575323	     -1.30851479	     -8.60151296	    -52.96706316	      9.97141882	    -14.05576301	     -1.66008993	     -1.15491693	      0.74331628	     14.29118132	     -5.52080597	      0.00000000	      0.00000000	      0.00000000	      0.00000000	      0.00000000	      0.00000000	      1.29440086	     -9.95477275	     -1.09932981	     -3.52808082
